<svg xmlns="http://www.w3.org/2000/svg" xmlns:xlink="http://www.w3.org/1999/xlink" width="500" zoomAndPan="magnify" viewBox="0 0 375 374.999991" height="500" preserveAspectRatio="xMidYMid meet" version="1.0"><defs><clipPath id="id1"><path d="M 68.386719 188.25 L 317.386719 188.25 L 317.386719 321 L 68.386719 321 Z M 68.386719 188.25 " clip-rule="nonzero"/></clipPath></defs><path fill="rgb(49.409485%, 85.099792%, 34.118652%)" d="M 187.351562 374.699219 C 137.332031 374.699219 90.230469 355.230469 54.886719 319.8125 C 19.46875 284.46875 0 237.371094 0 187.351562 C 0 137.332031 19.46875 90.230469 54.886719 54.886719 C 90.230469 19.46875 137.332031 0 187.351562 0 C 237.371094 0 284.46875 19.46875 319.8125 54.886719 C 355.230469 90.304688 374.699219 137.332031 374.699219 187.351562 C 374.699219 237.371094 355.230469 284.46875 319.8125 319.8125 C 284.46875 355.230469 237.371094 374.699219 187.351562 374.699219 Z M 187.351562 11.230469 C 140.324219 11.230469 96.070312 29.578125 62.824219 62.824219 C 29.578125 96.070312 11.230469 140.324219 11.230469 187.351562 C 11.230469 234.375 29.578125 278.628906 62.824219 311.875 C 96.070312 345.121094 140.324219 363.46875 187.351562 363.46875 C 234.375 363.46875 278.628906 345.121094 311.875 311.875 C 345.121094 278.628906 363.46875 234.375 363.46875 187.351562 C 363.46875 140.324219 345.121094 96.070312 311.875 62.824219 C 278.628906 29.578125 234.375 11.230469 187.351562 11.230469 Z M 187.351562 11.230469 " fill-opacity="1" fill-rule="nonzero"/><g clip-path="url(#id1)"><path fill="rgb(49.409485%, 85.099792%, 34.118652%)" d="M 69.390625 231.570312 C 78.710938 250.523438 88.03125 269.910156 102.085938 285.875 C 116.394531 302.128906 136.257812 314.261719 157.449219 318.800781 C 181.042969 323.851562 205.984375 319.65625 227.996094 310.34375 C 250.058594 301.007812 269.917969 286.457031 285.636719 268.355469 C 301.242188 250.386719 312.652344 228.625 316.269531 204.921875 C 316.820312 201.328125 317.148438 197.710938 317.296875 194.082031 C 317.367188 192.339844 316.78125 190.066406 315.097656 189.203125 C 313.53125 188.394531 312.332031 189.902344 312.269531 191.394531 C 311.773438 203.703125 308.953125 215.40625 304.183594 226.882812 C 299.851562 237.300781 293.824219 247.1875 286.863281 256.125 C 272.761719 274.238281 254.144531 289.332031 233.5625 299.429688 C 212.613281 309.707031 188.796875 315.484375 165.441406 312.710938 C 153.925781 311.34375 143.050781 307.773438 132.8125 302.359375 C 123.820312 297.601562 116.042969 292.03125 108.820312 284.867188 C 105.191406 281.269531 102.769531 278.472656 99.746094 274.554688 C 96.828125 270.765625 94.132812 266.804688 91.601562 262.742188 C 90.265625 260.605469 88.980469 258.4375 87.726562 256.253906 C 88.074219 256.859375 87.707031 256.21875 87.621094 256.066406 C 87.484375 255.824219 87.347656 255.582031 87.210938 255.335938 C 86.878906 254.75 86.550781 254.164062 86.226562 253.574219 C 85.625 252.480469 85.027344 251.382812 84.4375 250.285156 C 81.867188 245.488281 79.414062 240.632812 76.992188 235.761719 C 75.769531 233.304688 74.558594 230.84375 73.347656 228.378906 C 72.753906 227.175781 71.234375 225.417969 69.789062 226.542969 C 68.402344 227.625 68.722656 230.210938 69.390625 231.570312 Z M 69.390625 231.570312 " fill-opacity="1" fill-rule="nonzero"/></g></svg>