<svg xmlns="http://www.w3.org/2000/svg" width="448.012" height="448.012" viewBox="0 0 448.012 448.012"><g transform="translate(-3548.296 -297)"><path d="M3996.308,521.006C3996.308,397.291,3896.018,297,3772.3,297S3548.3,397.291,3548.3,521.006a224.419,224.419,0,0,0,7.018,55.838h433.978A224.419,224.419,0,0,0,3996.308,521.006Z" fill="#27334b"/><path d="M3772.818,765.617c104.437,0,192.179-71.47,216.99-168.168H3555.83C3580.64,694.147,3668.382,765.617,3772.818,765.617Z" transform="translate(-0.534 -20.606)" fill="#ff7500"/><g transform="translate(3621.296 401.766)"><path d="M3683.8,512.272l-4.349-8.807-4.342,8.807-9.72,1.412,7.034,6.856-1.661,9.678,8.688-4.568,8.7,4.568-1.663-9.678,7.034-6.856Z" transform="translate(-3629.253 -415.926)" fill="#ffcd00"/><path d="M3737.794,512.272l-4.337-8.807-4.347,8.807-9.725,1.412,7.037,6.856-1.663,9.678,8.7-4.568,8.688,4.568-1.661-9.678,7.031-6.856Z" transform="translate(-3632.956 -415.926)" fill="#ffcd00"/><path d="M3791.793,512.272l-4.349-8.807-4.341,8.807-9.718,1.412,7.032,6.856-1.665,9.678,8.692-4.568,8.7,4.568-1.66-9.678,7.027-6.856Z" transform="translate(-3636.659 -415.926)" fill="#ffcd00"/><path d="M3845.791,512.272l-4.351-8.807-4.349,8.807-9.71,1.412,7.03,6.856-1.666,9.678,8.695-4.568,8.692,4.568-1.656-9.678,7.03-6.856Z" transform="translate(-3640.363 -415.926)" fill="#ffcd00"/><path d="M3899.788,512.271l-4.349-8.806-4.342,8.806-9.723,1.413,7.038,6.856-1.664,9.678,8.691-4.569,8.692,4.569-1.656-9.678,7.031-6.856Z" transform="translate(-3644.066 -415.926)" fill="#ffcd00"/><path d="M3672.641,491.763c5.148,2.815,8.46-28.776,17.223-62.647a1.55,1.55,0,0,0-2.721-1.287C3682.676,432.932,3669.2,489.88,3672.641,491.763Z" transform="translate(-3629.712 -410.701)" fill="#ff7500"/><path d="M3647.689,445.894s-9.406-1.677-9.8-.1c-.258,1.025,1.1,2.214,5.219,3.485-1.419,5.321-12.669,49.308-16.373,65.712-.437,1.935.165,3.851,1.555,3.3.971-.388,1.516-1.65,1.869-2.641,2.538-7.122,7.89-24.209,7.89-24.209,9.219.789,27.172-3.85,29.285-25.106C3668.745,452.1,3655.388,447.107,3647.689,445.894Zm13.037,19.657c-1.336,8.047-7.164,20.5-20.8,19.481a244.215,244.215,0,0,0,8.429-34.461C3653.032,451.333,3662.616,454.165,3660.727,465.55Z" transform="translate(-3626.592 -411.925)" fill="#ff7500"/><path d="M3743.334,459.06c1.558.65,3.334-2.676,3.8-5.276.482-2.663-.648-6.939-8.416-6.708a9.984,9.984,0,0,0-9.764,12.361c1.644,6.928,11.2,14.621,9.11,20.722-1.99,5.819-9.31,10.447-14.257,4.888-.877-.987-1.273-3.281,0-5.839.891-1.789-.53-2.018-.984-1.629a8.828,8.828,0,0,0-2.274,10.183c3.8,10.083,17.274,4.535,20.8-.418,10.108-14.212-4.326-23.455-7.149-27.907-4.419-6.97,5.422-11.125,8.872-7.732C3745.648,454.238,3741.335,458.226,3743.334,459.06Z" transform="translate(-3632.988 -412.058)" fill="#ff7500"/><path d="M3717.1,452.1c-.791,1.784-3.118,8.3-3.118,8.3s-15.472,21.18-22.988,24.116c-3.744,1.462,5.863-23.373,9.711-35.429a8.911,8.911,0,0,0,.61-3.144c-.283-.8-1.771.426-2.768,1.654-7.222,8.9-18.124,37.439-12.607,43.2,1.036,1.082,2.129,1.256,3.863,1.212,8.61-.222,20.913-18.931,20.913-18.931s-2.072,12.07-3.064,17.025c-.558,2.792,2.793,2.889,3.862-.438,2.634-8.2,6.717-27.111,9.7-38.054C3721.976,448.81,3718.243,449.527,3717.1,452.1Z" transform="translate(-3630.56 -411.964)" fill="#ff7500"/><path d="M3855.667,447.505q-4.291-3.483-13.611-3.484-2.568,0-5.371.178t-5.3.463v47.426h5.877V473.814h4.8a29.986,29.986,0,0,0,6.755-.747,15.288,15.288,0,0,0,5.741-2.595,12.811,12.811,0,0,0,3.952-4.907,17.877,17.877,0,0,0,1.452-7.679Q3859.956,450.991,3855.667,447.505Zm-2.736,15.963a7.334,7.334,0,0,1-2.736,3.165,11.642,11.642,0,0,1-4.391,1.564,36.832,36.832,0,0,1-5.911.427h-2.7V449.5h-.135q1.149-.142,2.432-.213t3.039-.072a22.34,22.34,0,0,1,4.459.427,9.91,9.91,0,0,1,3.614,1.458,7.213,7.213,0,0,1,2.4,2.773,9.7,9.7,0,0,1,.877,4.374A12.426,12.426,0,0,1,3852.931,463.468Z" transform="translate(-3640.637 -411.849)" fill="#ff7500"/><path d="M3896.876,492.088l-12.357-20.62a13.283,13.283,0,0,0,3.817-1.6,11.782,11.782,0,0,0,3.141-2.845,14.162,14.162,0,0,0,2.161-4.088,16.264,16.264,0,0,0,.811-5.333q0-6.967-4.053-10.274t-13.306-3.307q-2.568,0-5.371.143t-5.235.5v47.426h5.876V472.605h6.012l11.816,19.482Zm-19.72-24.744h-4.8V449.568q.944-.141,2.127-.213t2.736-.071a26.965,26.965,0,0,1,4.56.355,9.134,9.134,0,0,1,3.512,1.316,6.182,6.182,0,0,1,2.229,2.666,12.255,12.255,0,0,1-.033,8.675,7.542,7.542,0,0,1-2.3,2.914,9.351,9.351,0,0,1-3.512,1.636A18.965,18.965,0,0,1,3877.156,467.344Z" transform="translate(-3643.044 -411.849)" fill="#ff7500"/><path d="M3945.512,458.8v0a24.454,24.454,0,0,0-12.921-12.92,24.366,24.366,0,0,0-18.935,0,24.243,24.243,0,0,0-7.691,5.22,24.911,24.911,0,0,0-5.162,7.7,24.359,24.359,0,0,0,0,18.935,24.2,24.2,0,0,0,12.853,12.854,24.362,24.362,0,0,0,18.936,0,24.937,24.937,0,0,0,7.7-5.162,24.234,24.234,0,0,0,5.22-7.692,24.363,24.363,0,0,0,0-18.934Zm-5.428,16.594a18.355,18.355,0,0,1-3.947,5.827,19.03,19.03,0,0,1-5.885,3.938,18.451,18.451,0,0,1-14.256,0,18.293,18.293,0,0,1-9.764-9.765,18.447,18.447,0,0,1,0-14.255,19.055,19.055,0,0,1,3.937-5.885,18.357,18.357,0,0,1,5.827-3.946,18.455,18.455,0,0,1,14.256,0,18.544,18.544,0,0,1,9.833,9.833,18.457,18.457,0,0,1,0,14.254Z" transform="translate(-3645.267 -411.845)" fill="#ff7500"/><path d="M3768.423,463.045a11.565,11.565,0,0,0-2.95-1.629,8.591,8.591,0,0,0-3-.59,10.982,10.982,0,0,0-5.83,1.511,10.058,10.058,0,0,0-3.824,4.225,13.8,13.8,0,0,0-1.345,6.208,12.985,12.985,0,0,0,2.9,8.851,10.064,10.064,0,0,0,8,3.328,8.636,8.636,0,0,0,2.667-.471,11.131,11.131,0,0,0,2.714-1.323v11.519l3.777-.472V461.44h-2.266Zm-.66,16.522a7.577,7.577,0,0,1-2.431,1.676,7.715,7.715,0,0,1-3,.543,6.125,6.125,0,0,1-5.263-2.478,10.887,10.887,0,0,1-1.817-6.586,10.374,10.374,0,0,1,1.888-6.3,6.184,6.184,0,0,1,5.24-2.432,7.8,7.8,0,0,1,5.382,2.03Z" transform="translate(-3635.157 -413.002)" fill="#fff"/><path d="M3778.439,461.481v15.484a9.086,9.086,0,0,0,1.771,5.877,6.529,6.529,0,0,0,5.4,2.2,10.774,10.774,0,0,0,4.58-1.134,13.756,13.756,0,0,0,4.059-2.831l.614,3.3h2.786V461.434h-3.73v16.239a14.851,14.851,0,0,1-3.8,2.974,8.179,8.179,0,0,1-3.848,1.18,3.515,3.515,0,0,1-3.163-1.416,7.1,7.1,0,0,1-.944-3.965V461.481Z" transform="translate(-3637.006 -413.044)" fill="#fff"/><path d="M3821.6,464.319q-2.383-3.493-7.388-3.493a10.521,10.521,0,0,0-5.736,1.534,9.694,9.694,0,0,0-3.682,4.248,14.67,14.67,0,0,0-1.251,6.208,12.451,12.451,0,0,0,3.068,8.828q3.068,3.306,8.922,3.3a13.69,13.69,0,0,0,4.3-.637,21.907,21.907,0,0,0,3.871-1.723l-1.18-2.738a25.931,25.931,0,0,1-3.658,1.511,11.442,11.442,0,0,1-3.375.472q-4.062,0-6.02-2.242a9.527,9.527,0,0,1-2.1-6.114h16.617A15.955,15.955,0,0,0,3821.6,464.319Zm-14.139,6.609a8.71,8.71,0,0,1,2.006-5.074,5.875,5.875,0,0,1,4.6-1.866q5.429,0,6.232,6.94Z" transform="translate(-3638.728 -413.002)" fill="#fff"/><path d="M3934.888,475.811l-.051.021a43.624,43.624,0,0,1-5.362,1.91,18.134,18.134,0,0,1-10.834,0,43.693,43.693,0,0,1-5.362-1.91l-.052-.021a.872.872,0,0,0-.873,1.494,21.07,21.07,0,0,0,5.452,2.991,19.991,19.991,0,0,0,3.035.885,15.149,15.149,0,0,0,6.434,0,19.991,19.991,0,0,0,3.035-.885,21.05,21.05,0,0,0,5.452-2.991.872.872,0,0,0-.874-1.494Z" transform="translate(-3646.167 -414.025)" fill="#fff"/><g transform="translate(70.96)"><path d="M3734.674,417.9c-6.093,0-8.226,5.356-8.226,9.291,0,3.688,2.077,6.148,6.313,6.148a9.745,9.745,0,0,0,5.766-1.94L3737,428.83a6.453,6.453,0,0,1-3.689,1.339c-1.421,0-2.487-.629-2.6-2.569,4.563-.465,9.318-1.667,9.318-5.738C3740.03,419.676,3738.2,417.9,3734.674,417.9Zm-3.771,7.078c.383-2.077,1.367-4.208,3.443-4.208a1.231,1.231,0,0,1,1.394,1.284C3735.74,423.42,3734.538,424.731,3730.9,424.978Z" transform="translate(-3704.4 -410.058)" fill="#fff"/><path d="M3759.839,417.9a5.693,5.693,0,0,0-4.509,2.706,2.991,2.991,0,0,0-3.169-2.706,5.524,5.524,0,0,0-4.537,2.842l.082-2.377h-3.688L3742,432.874h4.235l1.121-8.033c.82-2.022,1.858-3.415,2.787-3.415.6,0,1.066.328.848,1.858l-1.366,9.591h4.235l1.147-8.143c.875-1.939,1.858-3.306,2.815-3.306.6,0,1.039.328.82,1.858l-1.366,9.591h4.236l1.475-10.547C3763.365,419.567,3762.08,417.9,3759.839,417.9Z" transform="translate(-3705.467 -410.058)" fill="#fff"/><path d="M3776.434,417.475a5.8,5.8,0,0,0-3.989,1.694l1.038-7.46-4.289.465-2.733,19.537a15.884,15.884,0,0,0,5.956,1.2c6.723,0,8.471-5.6,8.471-9.783C3780.887,419.525,3779.33,417.475,3776.434,417.475Zm-3.58,12.3a4.768,4.768,0,0,1-1.831-.355l.985-7.1a3.627,3.627,0,0,1,2.787-1.667c.956,0,1.721.547,1.721,2.569C3776.516,425.947,3775.559,429.772,3772.854,429.772Z" transform="translate(-3707.145 -409.633)" fill="#fff"/><path d="M3794.618,418.178a4.731,4.731,0,0,0-1.448-.219c-1.584,0-3.088,1.066-4.1,3.115l.054-2.7h-3.688l-2.022,14.51h4.235l.957-6.722c.792-2.3,1.775-4.016,3.579-4.016a4.577,4.577,0,0,1,1.2.191Z" transform="translate(-3708.307 -410.062)" fill="#fff"/><path d="M3802.346,417.9c-6.094,0-8.224,5.356-8.224,9.291,0,3.688,2.076,6.148,6.311,6.148a9.749,9.749,0,0,0,5.766-1.94l-1.53-2.569a6.452,6.452,0,0,1-3.689,1.339c-1.421,0-2.486-.629-2.6-2.569,4.563-.465,9.318-1.667,9.318-5.738C3807.7,419.676,3805.871,417.9,3802.346,417.9Zm-3.77,7.078c.382-2.077,1.365-4.208,3.442-4.208a1.232,1.232,0,0,1,1.394,1.284C3803.413,423.42,3802.21,424.731,3798.576,424.978Z" transform="translate(-3709.042 -410.058)" fill="#fff"/><path d="M3826.659,418.871a4.354,4.354,0,0,0-3.333-1.393c-4.946,0-6.941,5.629-6.941,9.592,0,3.633,1.53,5.847,4.564,5.847a5.161,5.161,0,0,0,4.316-2.542l-.026,2.077h3.77l2.842-20.275-4.208-.437Zm-1.147,8.2c-.9,1.448-1.912,2.678-3.143,2.678-.929,0-1.585-.6-1.585-2.651,0-2.4.766-6.476,3.471-6.476a2.413,2.413,0,0,1,2.021,1.039Z" transform="translate(-3710.569 -409.636)" fill="#fff"/><path d="M3842.067,427.662c-.792,1.2-1.776,2.3-2.788,2.3-.766,0-1.176-.437-.957-1.885l1.339-9.673h-4.234l-1.476,10.356c-.382,2.814.766,4.618,3.443,4.618a5.833,5.833,0,0,0,4.591-2.624l-.083,2.159h3.662l2.021-14.51h-4.235Z" transform="translate(-3711.769 -410.092)" fill="#fff"/><path d="M3867.864,418.178a4.739,4.739,0,0,0-1.448-.219c-1.585,0-3.089,1.066-4.1,3.115l.056-2.7h-3.689l-2.022,14.51h4.235l.956-6.722c.793-2.3,1.777-4.016,3.581-4.016a4.562,4.562,0,0,1,1.2.191Z" transform="translate(-3713.331 -410.062)" fill="#fff"/><path d="M3880.948,421.862c0-2.186-1.831-3.962-5.355-3.962-6.093,0-8.226,5.356-8.226,9.291,0,3.688,2.077,6.148,6.313,6.148a9.745,9.745,0,0,0,5.766-1.94l-1.531-2.569a6.448,6.448,0,0,1-3.688,1.339c-1.421,0-2.487-.629-2.6-2.569C3876.193,427.136,3880.948,425.933,3880.948,421.862Zm-9.126,3.116c.382-2.077,1.366-4.208,3.442-4.208a1.232,1.232,0,0,1,1.394,1.284C3876.658,423.42,3875.456,424.731,3871.822,424.978Z" transform="translate(-3714.065 -410.058)" fill="#fff"/><path d="M3880.123,412.7l-1.312-3.224-6.339,3.607.957,2.213Z" transform="translate(-3714.415 -409.481)" fill="#fff"/><path d="M3889.579,420.961a6.2,6.2,0,0,1,3.415,1.12l1.886-2.323a8.171,8.171,0,0,0-5.33-1.858c-3.989,0-6.12,2.186-6.12,4.673,0,2.158,1.2,3.361,3.688,4.208,2.3.793,2.87,1.066,2.87,2.022,0,.793-.711,1.448-2.24,1.448a5.836,5.836,0,0,1-3.908-1.53l-2.158,2.24a8.243,8.243,0,0,0,6.039,2.378c4.454,0,6.5-2.35,6.5-5.056,0-2.268-1.339-3.606-3.77-4.4-2.213-.711-2.815-.957-2.815-1.721C3887.638,421.452,3888.294,420.961,3889.579,420.961Z" transform="translate(-3715.047 -410.058)" fill="#fff"/><path d="M3905.1,417.9c-6.093,0-8.225,5.356-8.225,9.291,0,3.688,2.077,6.148,6.312,6.148a9.746,9.746,0,0,0,5.765-1.94l-1.529-2.569a6.455,6.455,0,0,1-3.689,1.339c-1.421,0-2.487-.629-2.6-2.569,4.563-.465,9.318-1.667,9.318-5.738C3910.457,419.676,3908.627,417.9,3905.1,417.9Zm-3.771,7.078c.383-2.077,1.366-4.208,3.443-4.208a1.231,1.231,0,0,1,1.394,1.284C3906.167,423.42,3904.964,424.731,3901.33,424.978Z" transform="translate(-3716.089 -410.058)" fill="#fff"/><path d="M3926.483,419.43a12.289,12.289,0,0,0-5.929-1.53c-6.12,0-8.306,5.52-8.306,9.674,0,3.5,1.639,5.765,4.7,5.765a5.137,5.137,0,0,0,4.318-2.487,3.464,3.464,0,0,0,3.362,2.4l1.229-2.788c-.792-.3-.821-.793-.711-1.748Zm-5.437,8.717c-.819,1.256-1.721,2.022-2.76,2.022-.957,0-1.639-.574-1.639-2.624,0-2.815.984-6.585,3.8-6.585a4.451,4.451,0,0,1,1.613.273Z" transform="translate(-3717.143 -410.058)" fill="#fff"/><path d="M3938.8,418.4l-1.283,9.263c-.793,1.2-1.776,2.3-2.788,2.3-.765,0-1.175-.437-.956-1.885l1.338-9.673h-4.235l-1.475,10.356c-.383,2.814.765,4.618,3.443,4.618a5.833,5.833,0,0,0,4.591-2.624l-.083,2.159h3.662l2.022-14.51Z" transform="translate(-3718.315 -410.092)" fill="#fff"/><path d="M3713.243,426.79l-1.011-13.144h-5.384l-4.071,18.937h4.317l1.312-7.3a48.962,48.962,0,0,0,.956-8.142l1.257,13.443h4.236l4.728-13.5c-.492,2.76-.793,5.383-1.04,8.033l-.683,7.46h4.317l1.229-18.937h-5.737Z" transform="translate(-3702.777 -409.766)" fill="#fff"/></g></g><g transform="translate(3652.296 609.956)"><g style="isolation:isolate"><g style="isolation:isolate"><path d="M3677.639,670.878H3672.5q-.964,0-.643-1.124l8.46-32.18a1.536,1.536,0,0,1,1.606-1.124h7.122a1.442,1.442,0,0,1,1.607,1.124l8.459,32.18q.321,1.123-.642,1.124h-5.14a1.051,1.051,0,0,1-.8-.24,1.812,1.812,0,0,1-.321-.884l-1.5-5.889h-10.441l-1.5,5.889a1.661,1.661,0,0,1-.348.884A1.068,1.068,0,0,1,3677.639,670.878Zm7.764-27.949-3.855,15.474h7.924l-3.855-15.474Z" transform="translate(-3671.777 -633.237)" fill="#fff"/><path d="M3702.667,644.095h4.712a1.209,1.209,0,0,1,1.285,1.124l4.6,20.133h.375l4.5-20.133a1.237,1.237,0,0,1,1.338-1.124h4.712q1.125,0,.8,1.124l-6.747,25a1.312,1.312,0,0,1-1.446,1.178H3710a1.4,1.4,0,0,1-1.446-1.178l-6.693-25Q3701.543,644.095,3702.667,644.095Z" transform="translate(-3673.835 -633.761)" fill="#fff"/><path d="M3729.52,638.729v-4.658a.947.947,0,0,1,1.071-1.071h4.659q1.07,0,1.07,1.017v4.712a.946.946,0,0,1-1.07,1.071h-4.659A.946.946,0,0,1,3729.52,638.729Zm0,30.788V644.458q0-1.125,1.071-1.124h4.6a.993.993,0,0,1,1.124,1.124v25.059a1.237,1.237,0,0,1-.24.911,1.262,1.262,0,0,1-.83.213h-4.6A.994.994,0,0,1,3729.52,669.517Z" transform="translate(-3675.737 -633)" fill="#fff"/><path d="M3752.02,671.4h-10.174q-1.072,0-1.07-1.124v-3.427a1.248,1.248,0,0,1,.214-.83,1.14,1.14,0,0,1,.856-.241h8.942q2.622,0,2.624-1.606v-.268q0-1.285-2.2-2.463l-5.3-2.945a12.13,12.13,0,0,1-4.015-3,6.393,6.393,0,0,1-1.285-4.122q0-3.748,1.981-5.516t6.212-1.767h8.942q1.07,0,1.071,1.124V648.7a1.258,1.258,0,0,1-.214.83,1.14,1.14,0,0,1-.857.241h-7.443q-2.624,0-2.623,1.338v.268q0,1.178,2.3,2.409l5.408,3.212a11.332,11.332,0,0,1,3.909,3.079,7,7,0,0,1,1.124,4.149Q3760.426,671.4,3752.02,671.4Z" transform="translate(-3676.498 -633.761)" fill="#fff"/></g></g><g transform="translate(100.208 0.152)" style="isolation:isolate"><g style="isolation:isolate"><path d="M3794.173,671.4h-5.892a9.044,9.044,0,0,1-6.594-2.271q-2.324-2.27-2.324-6.54V645.455q0-4.27,2.324-6.54a9.044,9.044,0,0,1,6.594-2.27h5.892a9,9,0,0,1,6.567,2.3,8.692,8.692,0,0,1,2.351,6.513V648a1.051,1.051,0,0,1-1.188,1.189h-4.541q-1.136,0-1.135-1.189V645.78a2.69,2.69,0,0,0-3.189-3.189h-3.675a3.309,3.309,0,0,0-2.406.729,3.4,3.4,0,0,0-.729,2.46v16.486a3.4,3.4,0,0,0,.729,2.46,3.314,3.314,0,0,0,2.406.729h3.675a2.69,2.69,0,0,0,3.189-3.189v-2.216q0-1.189,1.135-1.189h4.541a1.051,1.051,0,0,1,1.188,1.189v2.54a8.69,8.69,0,0,1-2.351,6.513A9,9,0,0,1,3794.173,671.4Z" transform="translate(-3779.363 -633.402)" fill="#fff"/><path d="M3814.922,671.163h-4.6a1,1,0,0,1-1.134-1.135V634.3a1,1,0,0,1,1.134-1.135h4.6a1,1,0,0,1,1.135,1.135v35.729A1,1,0,0,1,3814.922,671.163Z" transform="translate(-3781.409 -633.163)" fill="#fff"/><path d="M3821.842,638.947v-4.7a.955.955,0,0,1,1.081-1.08h4.7q1.08,0,1.081,1.027v4.757a.955.955,0,0,1-1.081,1.08h-4.7A.955.955,0,0,1,3821.842,638.947Zm0,31.08v-25.3q0-1.136,1.081-1.134h4.649a1,1,0,0,1,1.135,1.134v25.3a1.246,1.246,0,0,1-.243.919,1.267,1.267,0,0,1-.838.216h-4.649A1,1,0,0,1,3821.842,670.028Z" transform="translate(-3782.276 -633.163)" fill="#fff"/><path d="M3854.488,671.931h-11.945a9.044,9.044,0,0,1-6.595-2.271q-2.326-2.27-2.324-6.54v-9.946q0-4.27,2.324-6.54a9.044,9.044,0,0,1,6.595-2.27h4.27a9.047,9.047,0,0,1,6.594,2.27q2.325,2.27,2.325,6.54v6.865a1,1,0,0,1-1.135,1.135h-13.567q-.65,0-.649.594v1.189a3.313,3.313,0,0,0,.73,2.406,3.4,3.4,0,0,0,2.459.729h10.919q1.136,0,1.135,1.189v3.567a1.165,1.165,0,0,1-.243.838A1.263,1.263,0,0,1,3854.488,671.931Zm-13.459-15.352h7.351a.525.525,0,0,0,.6-.594V653.39a2.621,2.621,0,0,0-3.135-3.135h-2.271a2.621,2.621,0,0,0-3.135,3.135v2.595A.525.525,0,0,0,3841.029,656.58Z" transform="translate(-3783.084 -633.931)" fill="#fff"/><path d="M3866.918,671.931h-4.595a1,1,0,0,1-1.135-1.135V645.5a1,1,0,0,1,1.135-1.134h4.595a1,1,0,0,1,1.135,1.134v1.784h.216q1.189-2.919,5.3-2.918h1.73q8.485,0,8.486,8.81V670.8q0,1.136-1.189,1.135h-4.541a1,1,0,0,1-1.135-1.135V653.5a2.691,2.691,0,0,0-3.189-3.189h-1.947q-3.729,0-3.729,4.109V670.8A1,1,0,0,1,3866.918,671.931Z" transform="translate(-3784.975 -633.931)" fill="#fff"/><path d="M3890.253,649.8h-2.163a1.368,1.368,0,0,1-.891-.216,1.146,1.146,0,0,1-.244-.864v-3.73a1,1,0,0,1,1.135-1.134h2.163a.526.526,0,0,0,.594-.6v-5.135q0-1.136,1.189-1.135h4.54a1,1,0,0,1,1.135,1.135v5.135q0,.6.648.6h4.217a1,1,0,0,1,1.135,1.134v3.73a1.163,1.163,0,0,1-.243.837,1.26,1.26,0,0,1-.892.243h-4.217q-.648,0-.648.594v11.946a3.237,3.237,0,0,0,.756,2.406,3.509,3.509,0,0,0,2.487.729h2.162a1,1,0,0,1,1.135,1.135v3.729a1.165,1.165,0,0,1-.243.838,1.263,1.263,0,0,1-.892.243h-3.3a9.143,9.143,0,0,1-6.622-2.271,8.6,8.6,0,0,1-2.351-6.486V650.4A.526.526,0,0,0,3890.253,649.8Z" transform="translate(-3786.742 -633.426)" fill="#fff"/><path d="M3919.013,671.931h-10.271q-1.081,0-1.081-1.135v-3.459a1.264,1.264,0,0,1,.217-.838,1.151,1.151,0,0,1,.865-.243h9.027q2.648,0,2.648-1.622v-.27q0-1.3-2.216-2.487l-5.351-2.972a12.23,12.23,0,0,1-4.055-3.028,6.448,6.448,0,0,1-1.3-4.162q0-3.784,2-5.567t6.269-1.784h9.028q1.081,0,1.081,1.134v3.513a1.268,1.268,0,0,1-.216.838,1.155,1.155,0,0,1-.865.243h-7.514q-2.649,0-2.648,1.351v.27q0,1.189,2.324,2.433l5.46,3.243a11.424,11.424,0,0,1,3.945,3.108,7.071,7.071,0,0,1,1.135,4.189Q3927.5,671.932,3919.013,671.931Z" transform="translate(-3788.151 -633.931)" fill="#fff"/></g></g><g transform="translate(27 51.188)"><path d="M3675.47,704.636V688.328a.328.328,0,0,1,.371-.371h6.232a3.9,3.9,0,0,1,2.863,1.021,3.823,3.823,0,0,1,1.035,2.851v1.458a2.909,2.909,0,0,1-2.228,3.049,2.5,2.5,0,0,1,1.724.889,3.1,3.1,0,0,1,.716,2.135v1.776a3.8,3.8,0,0,1-1.048,2.851,3.949,3.949,0,0,1-2.877,1.021h-6.418A.328.328,0,0,1,3675.47,704.636Zm2.2-9.122h4.083a2.028,2.028,0,0,0,2.333-2.254v-1.406a1.992,1.992,0,0,0-2.254-2.253h-4.163a.234.234,0,0,0-.265.264v5.411Q3677.406,695.514,3677.671,695.514Zm0,7.849h4.349a2,2,0,0,0,2.28-2.253v-1.724q0-2.254-2.439-2.254h-4.19c-.177,0-.265.079-.265.238V703.1A.234.234,0,0,0,3677.671,703.363Z" transform="translate(-3675.47 -687.957)" fill="#fff"/><path d="M3706.531,705.008h-8.512a.329.329,0,0,1-.372-.372V688.328a.328.328,0,0,1,.372-.371h1.193a.328.328,0,0,1,.372.371v14.69c0,.16.088.239.264.239h6.683c.247,0,.371.132.371.4v.981A.328.328,0,0,1,3706.531,705.008Z" transform="translate(-3676.991 -687.957)" fill="#fff"/><path d="M3746.148,705.008h-3.182a3.608,3.608,0,0,1-3.925-3.925v-9.2a3.607,3.607,0,0,1,3.925-3.924h3.182a3.917,3.917,0,0,1,2.877,1.034,3.878,3.878,0,0,1,1.048,2.89v1.3a.329.329,0,0,1-.372.372h-1.193a.329.329,0,0,1-.372-.372v-1.219q0-2.307-2.227-2.308h-2.731q-2.2,0-2.2,2.308V701q0,2.307,2.2,2.307h2.731q2.227,0,2.227-2.307v-1.22a.329.329,0,0,1,.372-.372h1.193a.329.329,0,0,1,.372.372v1.3a3.608,3.608,0,0,1-3.925,3.925Z" transform="translate(-3679.83 -687.957)" fill="#fff"/><path d="M3762.84,705.008h-1.193a.328.328,0,0,1-.371-.372V688.328a.328.328,0,0,1,.371-.371h1.193a.328.328,0,0,1,.372.371v9.149h.079a3.845,3.845,0,0,1,.584-1.088l5.94-8.061a.77.77,0,0,1,.689-.371h1.432c.3,0,.345.132.132.4l-5.25,7.106,5.993,9.122q.291.425-.239.425h-1.087a.807.807,0,0,1-.769-.372l-5.091-7.77-2.413,2.89v4.88A.328.328,0,0,1,3762.84,705.008Z" transform="translate(-3681.355 -687.957)" fill="#fff"/><path d="M3789.962,705.008h-3.182a3.608,3.608,0,0,1-3.925-3.925v-9.2a3.878,3.878,0,0,1,1.048-2.89,3.917,3.917,0,0,1,2.877-1.034h3.182a3.607,3.607,0,0,1,3.925,3.924v1.3a.329.329,0,0,1-.372.372h-1.193a.328.328,0,0,1-.372-.372v-1.219q0-2.307-2.227-2.308h-2.732q-2.2,0-2.2,2.308V701q0,2.307,2.2,2.307h2.732A2,2,0,0,0,3791.95,701v-1.22a.328.328,0,0,1,.372-.372h1.193a.329.329,0,0,1,.372.372v1.3a3.608,3.608,0,0,1-3.925,3.925Z" transform="translate(-3682.835 -687.957)" fill="#fff"/><path d="M3806.654,705.008h-1.193a.328.328,0,0,1-.372-.372V688.328a.328.328,0,0,1,.372-.371h1.193a.328.328,0,0,1,.372.371V695.3c0,.159.089.239.265.239h6.576c.176,0,.266-.08.266-.239v-6.974a.327.327,0,0,1,.371-.371h1.194a.328.328,0,0,1,.371.371v16.308a.328.328,0,0,1-.371.372H3814.5a.328.328,0,0,1-.371-.372v-7.159c0-.159-.09-.239-.266-.239h-6.576c-.177,0-.265.08-.265.239v7.159A.328.328,0,0,1,3806.654,705.008Z" transform="translate(-3684.36 -687.957)" fill="#fff"/><path d="M3828.033,705.008h-1.326q-.345,0-.239-.372l4.959-16.308a.473.473,0,0,1,.5-.371h1.909a.474.474,0,0,1,.5.371l4.959,16.308c.071.248-.009.372-.239.372h-1.352q-.292,0-.372-.372l-1.246-3.871h-6.417l-1.246,3.871Q3828.323,705.008,3828.033,705.008Zm4.8-15.062-2.732,9.174h5.569l-2.731-9.174Z" transform="translate(-3685.824 -687.957)" fill="#fff"/><path d="M3851.921,688.328v16.308a.328.328,0,0,1-.372.372h-1.193a.328.328,0,0,1-.371-.372V688.328a.327.327,0,0,1,.371-.371h1.193A.328.328,0,0,1,3851.921,688.328Z" transform="translate(-3687.439 -687.957)" fill="#fff"/><path d="M3864.791,705.008h-1.167a.329.329,0,0,1-.372-.372V688.328a.328.328,0,0,1,.372-.371h1.087a.428.428,0,0,1,.425.212l7.318,12.86h.106v-12.7a.328.328,0,0,1,.372-.371h1.166a.328.328,0,0,1,.372.371v16.308a.328.328,0,0,1-.372.372h-.98a.727.727,0,0,1-.557-.345l-7.292-12.729h-.106v12.7A.328.328,0,0,1,3864.791,705.008Z" transform="translate(-3688.349 -687.957)" fill="#fff"/><path d="M3725.819,698.61v3.124a2,2,0,0,1-2.228,2.307h-2.7q-2.2,0-2.2-2.307V698.61h-1.935v3.2a3.608,3.608,0,0,0,3.925,3.925h3.156a3.624,3.624,0,0,0,3.924-3.925v-3.2Z" transform="translate(-3678.301 -688.688)" fill="#fff"/><path d="M3718.666,695.557h-1.946v-3.532a3.622,3.622,0,0,1,3.945-3.944h3.172a3.642,3.642,0,0,1,3.944,3.944v3.531h-1.946v-3.451a2.426,2.426,0,0,0-.562-1.739,2.245,2.245,0,0,0-1.678-.579h-2.716a2.2,2.2,0,0,0-1.659.579,2.446,2.446,0,0,0-.553,1.739v3.451Z" transform="translate(-3678.299 -687.965)" fill="#fff"/></g></g></g></svg>