<svg xmlns="http://www.w3.org/2000/svg" viewBox="0 0 150.19 105"><defs><style>.cls-1{fill:#4c1211;}.cls-2{fill:#eacd26;}.cls-3{fill:#a1d02f;}.cls-4{fill:#4d1311;}</style></defs><g id="Calque_3" data-name="Calque 3"><rect class="cls-1" x="26.77" y="85.16" width="85.13" height="15.34"/><polygon class="cls-1" points="58.34 14.25 26.77 14.25 26.77 61.32 58.34 14.25"/><polygon class="cls-2" points="71.13 3.67 122.59 79.55 20.22 79.55 71.13 3.67"/><polygon class="cls-3" points="41.18 4.05 26.77 14.25 58.34 14.25 65.3 4.05 41.18 4.05"/><polygon class="cls-3" points="77.69 3.91 84.69 14.25 92.44 14.25 105.46 3.91 77.69 3.91"/><polygon class="cls-3" points="104.15 14.25 117.15 4.48 126.2 4.48 126.1 74.98 111.89 54.34 111.89 14.25 104.15 14.25"/><polygon class="cls-1" points="95.13 18.94 92.44 18.94 92.44 14.25 84.69 14.25 95.13 29.64 95.13 18.94"/><polygon class="cls-1" points="104.15 14.25 104.15 18.94 101.39 18.94 101.39 38.86 111.89 54.34 111.89 14.25 104.15 14.25"/><polygon class="cls-3" points="111.89 85.16 111.89 100.5 126.23 90.47 126.23 85.16 111.89 85.16"/><path class="cls-4" d="M71.18,49.77c4.34.17,8.81,1,12.53,4,2.27,1.81,4.25,4,6.44,5.88,3.28,2.86,6.59,5.71,10.67,7.43,1.57.66,3.22,1.06,4.84,1.57.39.12.87.16.63.82s-.57.34-.94.26A29.91,29.91,0,0,1,93,63.49a103,103,0,0,1-8.15-7.32,17.9,17.9,0,0,0-10.68-5,21.55,21.55,0,0,0-10.78,1.12,20.36,20.36,0,0,0-9,7.1c-3,3.94-6.43,7.26-11.08,9.16a29.43,29.43,0,0,1-6.09,1.75c-.35.06-.65.11-.74-.36s.06-.69.56-.78a27.79,27.79,0,0,0,6.89-2.13A24.77,24.77,0,0,0,53.32,59,21.39,21.39,0,0,1,71.18,49.77Z"/><path class="cls-4" d="M70.38,56.09c0-.55-.19-.77-.74-.75-2.19,0-4.38-.1-6.56.14a3.44,3.44,0,0,0-3.2,3,3.4,3.4,0,0,0,2,3.64c.51.23.54.45.28.88a10.23,10.23,0,0,1-1.36,1.78,16.36,16.36,0,0,1-5.09,3.57l.36.06c2.79.16,4.65-1.42,6.25-3.4,1-1.17,1.78-2.44,3.52-2.43.69,0,1.38,0,2.06,0s.72.25.71.77c0,1.44,0,2.88,0,4.32,0,.64.19.85.84.82s.92-.06.92-.77C70.36,63.86,70.37,60,70.38,56.09ZM68,61.21c-.62,0-1.24,0-2,0A12.41,12.41,0,0,1,63.42,61a2.26,2.26,0,0,1-1.82-2.1,2.34,2.34,0,0,1,2.07-2c1.46-.08,2.94,0,4.4,0,.42,0,.58.18.58.59,0,1.05,0,2.09,0,3.13C68.66,61.08,68.44,61.23,68,61.21Z"/><path class="cls-4" d="M73.9,67.75c0,.71.33.75.91.77s.86-.18.84-.82c0-1.44,0-2.88,0-4.32,0-.52.14-.8.71-.77s1.38,0,2.06,0c1.75,0,2.57,1.26,3.52,2.43,1.61,2,3.47,3.56,6.26,3.4l.35-.06a16.36,16.36,0,0,1-5.09-3.57A10.17,10.17,0,0,1,82.09,63c-.27-.43-.24-.65.28-.88a3.42,3.42,0,0,0,2-3.64,3.46,3.46,0,0,0-3.21-3c-2.18-.24-4.37-.09-6.55-.14-.55,0-.75.2-.75.75Q73.93,61.91,73.9,67.75Zm1.74-7.15c0-1,0-2.08,0-3.13,0-.41.15-.6.57-.59,1.47,0,2.94,0,4.4,0a2.35,2.35,0,0,1,2.08,2A2.27,2.27,0,0,1,80.86,61a12.27,12.27,0,0,1-2.57.17c-.77,0-1.39,0-2,0C75.84,61.23,75.63,61.08,75.64,60.6Z"/></g></svg>