<svg xmlns="http://www.w3.org/2000/svg" width="150" viewBox="0 0 150 150" height="150" version="1.0"><path d="M 11.183594 119.726562 L 125.113281 119.726562 L 125.113281 140.300781 L 11.183594 140.300781 Z M 11.183594 119.726562"/><path d="M 53.433594 24.617188 L 11.183594 24.617188 L 11.183594 87.75 Z M 53.433594 24.617188"/><path fill="#545454" d="M 70.550781 10.425781 L 139.421875 112.203125 L 2.417969 112.203125 Z M 70.550781 10.425781"/><path fill="#A6A6A6" d="M 30.46875 10.9375 L 11.183594 24.617188 L 53.433594 24.617188 L 62.75 10.9375 Z M 30.46875 10.9375"/><path fill="#A6A6A6" d="M 79.332031 10.75 L 88.699219 24.617188 L 99.070312 24.617188 L 116.496094 10.75 Z M 79.332031 10.75"/><path fill="#A6A6A6" d="M 114.742188 24.617188 L 132.140625 11.511719 L 144.253906 11.511719 L 144.117188 106.070312 L 125.101562 78.386719 L 125.101562 24.617188 Z M 114.742188 24.617188"/><path d="M 102.671875 30.90625 L 99.070312 30.90625 L 99.070312 24.617188 L 88.699219 24.617188 L 102.671875 45.257812 Z M 102.671875 30.90625"/><path d="M 114.742188 24.617188 L 114.742188 30.90625 L 111.046875 30.90625 L 111.046875 57.625 L 125.101562 78.386719 L 125.101562 24.617188 Z M 114.742188 24.617188"/><path fill="#A6A6A6" d="M 125.101562 119.726562 L 125.101562 140.300781 L 144.292969 126.847656 L 144.292969 119.726562 Z M 125.101562 119.726562"/><path fill="#FFF" d="M 70.617188 72.257812 C 76.425781 72.488281 82.410156 73.601562 87.386719 77.625 C 90.425781 80.050781 93.074219 82.988281 96.007812 85.511719 C 100.394531 89.347656 104.824219 93.167969 110.285156 95.476562 C 112.386719 96.359375 114.59375 96.898438 116.761719 97.582031 C 117.285156 97.742188 117.925781 97.796875 117.605469 98.679688 C 117.285156 99.566406 116.84375 99.136719 116.347656 99.03125 C 113.304688 98.300781 110.386719 97.230469 107.59375 95.816406 C 104.800781 94.402344 102.210938 92.683594 99.820312 90.660156 C 96.011719 87.582031 92.375 84.308594 88.914062 80.84375 C 86.976562 78.949219 84.785156 77.425781 82.332031 76.277344 C 79.882812 75.125 77.3125 74.414062 74.621094 74.136719 C 72.191406 73.765625 69.753906 73.710938 67.3125 73.964844 C 64.867188 74.21875 62.496094 74.777344 60.191406 75.636719 C 57.773438 76.613281 55.535156 77.914062 53.488281 79.53125 C 51.4375 81.152344 49.660156 83.027344 48.148438 85.160156 C 44.132812 90.445312 39.542969 94.898438 33.320312 97.449219 C 30.6875 98.523438 27.972656 99.308594 25.167969 99.792969 C 24.703125 99.875 24.300781 99.941406 24.179688 99.3125 C 24.058594 98.679688 24.257812 98.386719 24.929688 98.265625 C 28.125 97.714844 31.199219 96.765625 34.148438 95.410156 C 36.664062 94.175781 38.984375 92.644531 41.113281 90.820312 C 43.242188 88.996094 45.109375 86.9375 46.714844 84.636719 C 48.050781 82.703125 49.597656 80.960938 51.359375 79.40625 C 53.121094 77.855469 55.042969 76.539062 57.125 75.457031 C 59.210938 74.378906 61.394531 73.570312 63.675781 73.027344 C 65.957031 72.484375 68.273438 72.230469 70.617188 72.257812 Z M 70.617188 72.257812"/><path fill="#FFF" d="M 69.546875 80.734375 C 69.546875 79.996094 69.292969 79.703125 68.558594 79.730469 C 65.625 79.730469 62.695312 79.59375 59.777344 79.917969 C 59.242188 79.949219 58.730469 80.074219 58.238281 80.285156 C 57.746094 80.5 57.304688 80.789062 56.914062 81.15625 C 56.523438 81.523438 56.207031 81.945312 55.960938 82.425781 C 55.71875 82.902344 55.5625 83.410156 55.496094 83.941406 C 55.417969 84.4375 55.421875 84.9375 55.511719 85.433594 C 55.597656 85.929688 55.761719 86.398438 56.003906 86.839844 C 56.246094 87.28125 56.550781 87.671875 56.925781 88.011719 C 57.296875 88.351562 57.710938 88.621094 58.171875 88.824219 C 58.855469 89.132812 58.894531 89.425781 58.546875 90.003906 C 58.027344 90.867188 57.421875 91.660156 56.726562 92.390625 C 54.765625 94.425781 52.492188 96.023438 49.914062 97.179688 L 50.398438 97.257812 C 54.128906 97.472656 56.621094 95.355469 58.761719 92.699219 C 60.097656 91.128906 61.144531 89.425781 63.472656 89.441406 C 64.394531 89.441406 65.320312 89.441406 66.230469 89.441406 C 67.140625 89.441406 67.191406 89.777344 67.179688 90.472656 C 67.179688 92.40625 67.179688 94.335938 67.179688 96.265625 C 67.179688 97.125 67.433594 97.40625 68.304688 97.367188 C 69.171875 97.328125 69.535156 97.285156 69.535156 96.335938 C 69.519531 91.15625 69.535156 85.980469 69.546875 80.734375 Z M 66.363281 87.601562 C 65.53125 87.601562 64.703125 87.601562 63.6875 87.601562 C 62.523438 87.628906 61.375 87.535156 60.234375 87.320312 C 59.902344 87.253906 59.589844 87.136719 59.300781 86.96875 C 59.007812 86.800781 58.753906 86.585938 58.53125 86.332031 C 58.3125 86.078125 58.136719 85.792969 58.011719 85.480469 C 57.886719 85.167969 57.816406 84.839844 57.796875 84.503906 C 57.847656 84.15625 57.949219 83.828125 58.109375 83.515625 C 58.265625 83.207031 58.472656 82.929688 58.722656 82.6875 C 58.972656 82.441406 59.257812 82.246094 59.574219 82.097656 C 59.890625 81.953125 60.222656 81.859375 60.566406 81.820312 C 62.523438 81.714844 64.503906 81.820312 66.457031 81.820312 C 67.019531 81.820312 67.234375 82.0625 67.234375 82.613281 C 67.234375 84.019531 67.234375 85.417969 67.234375 86.8125 C 67.246094 87.429688 66.953125 87.628906 66.363281 87.601562 Z M 66.363281 87.601562"/><path fill="#FFF" d="M 74.257812 96.375 C 74.257812 97.328125 74.699219 97.378906 75.476562 97.40625 C 76.253906 97.433594 76.628906 97.164062 76.601562 96.308594 C 76.601562 94.375 76.601562 92.445312 76.601562 90.511719 C 76.601562 89.816406 76.789062 89.441406 77.550781 89.480469 C 78.3125 89.519531 79.398438 89.480469 80.308594 89.480469 C 82.648438 89.480469 83.746094 91.171875 85.019531 92.738281 C 87.171875 95.421875 89.664062 97.515625 93.394531 97.300781 L 93.863281 97.21875 C 91.285156 96.0625 89.015625 94.46875 87.054688 92.429688 C 86.351562 91.691406 85.738281 90.882812 85.21875 90.003906 C 84.859375 89.425781 84.898438 89.132812 85.59375 88.824219 C 86.054688 88.621094 86.46875 88.347656 86.839844 88.007812 C 87.207031 87.667969 87.515625 87.277344 87.757812 86.835938 C 88 86.394531 88.164062 85.925781 88.25 85.429688 C 88.339844 84.933594 88.347656 84.4375 88.269531 83.941406 C 88.199219 83.410156 88.042969 82.902344 87.796875 82.425781 C 87.550781 81.949219 87.234375 81.523438 86.839844 81.15625 C 86.449219 80.792969 86.007812 80.5 85.515625 80.289062 C 85.023438 80.074219 84.511719 79.953125 83.976562 79.917969 C 81.058594 79.59375 78.125 79.796875 75.207031 79.730469 C 74.472656 79.730469 74.207031 79.996094 74.207031 80.734375 C 74.265625 85.941406 74.285156 91.152344 74.257812 96.375 Z M 76.585938 86.785156 C 76.585938 85.441406 76.585938 83.996094 76.585938 82.585938 C 76.585938 82.035156 76.789062 81.78125 77.351562 81.796875 C 79.316406 81.796875 81.285156 81.796875 83.238281 81.796875 C 83.585938 81.832031 83.917969 81.921875 84.234375 82.070312 C 84.554688 82.21875 84.835938 82.414062 85.089844 82.65625 C 85.339844 82.902344 85.546875 83.179688 85.707031 83.488281 C 85.867188 83.800781 85.972656 84.128906 86.023438 84.476562 C 86.007812 84.816406 85.933594 85.144531 85.808594 85.460938 C 85.683594 85.777344 85.507812 86.066406 85.289062 86.324219 C 85.066406 86.582031 84.808594 86.796875 84.515625 86.964844 C 84.21875 87.136719 83.90625 87.253906 83.574219 87.320312 C 82.433594 87.519531 81.289062 87.59375 80.132812 87.550781 C 79.101562 87.550781 78.273438 87.550781 77.457031 87.550781 C 76.855469 87.628906 76.574219 87.429688 76.585938 86.785156 Z M 76.585938 86.785156"/></svg>