<svg xmlns="http://www.w3.org/2000/svg" xmlns:xlink="http://www.w3.org/1999/xlink" width="500" zoomAndPan="magnify" viewBox="0 0 375 374.999991" height="500" preserveAspectRatio="xMidYMid meet" version="1.0"><path fill="rgb(0%, 0%, 0%)" d="M 187.351562 374.699219 C 137.332031 374.699219 90.230469 355.230469 54.886719 319.8125 C 19.46875 284.46875 0 237.371094 0 187.351562 C 0 137.332031 19.46875 90.230469 54.886719 54.886719 C 90.230469 19.46875 137.332031 0 187.351562 0 C 237.371094 0 284.46875 19.46875 319.8125 54.886719 C 355.230469 90.304688 374.699219 137.332031 374.699219 187.351562 C 374.699219 237.371094 355.230469 284.46875 319.8125 319.8125 C 284.46875 355.230469 237.371094 374.699219 187.351562 374.699219 Z M 187.351562 11.230469 C 140.324219 11.230469 96.070312 29.578125 62.824219 62.824219 C 29.578125 96.070312 11.230469 140.324219 11.230469 187.351562 C 11.230469 234.375 29.578125 278.628906 62.824219 311.875 C 96.070312 345.121094 140.324219 363.46875 187.351562 363.46875 C 234.375 363.46875 278.628906 345.121094 311.875 311.875 C 345.121094 278.628906 363.46875 234.375 363.46875 187.351562 C 363.46875 140.324219 345.121094 96.070312 311.875 62.824219 C 278.628906 29.578125 234.375 11.230469 187.351562 11.230469 Z M 187.351562 11.230469 " fill-opacity="1" fill-rule="nonzero"/><path fill="rgb(0%, 0%, 0%)" d="M 188.25 367.558594 C 140.378906 367.558594 95.300781 348.925781 61.472656 315.027344 C 27.574219 281.203125 8.941406 236.125 8.941406 188.25 C 8.941406 140.378906 27.574219 95.300781 61.472656 61.472656 C 95.300781 27.574219 140.378906 8.941406 188.25 8.941406 C 236.125 8.941406 281.203125 27.574219 315.027344 61.472656 C 348.925781 95.371094 367.558594 140.378906 367.558594 188.25 C 367.558594 236.125 348.925781 281.203125 315.027344 315.027344 C 281.203125 348.925781 236.125 367.558594 188.25 367.558594 Z M 188.25 19.691406 C 143.246094 19.691406 100.890625 37.25 69.070312 69.070312 C 37.25 100.890625 19.691406 143.246094 19.691406 188.25 C 19.691406 233.257812 37.25 275.613281 69.070312 307.429688 C 100.890625 339.25 143.246094 356.808594 188.25 356.808594 C 233.257812 356.808594 275.613281 339.25 307.429688 307.429688 C 339.25 275.613281 356.808594 233.257812 356.808594 188.25 C 356.808594 143.246094 339.25 100.890625 307.429688 69.070312 C 275.613281 37.25 233.257812 19.691406 188.25 19.691406 Z M 188.25 19.691406 " fill-opacity="1" fill-rule="nonzero"/><path stroke-linecap="round" transform="matrix(3.750203, 0, 0, 3.75, 85.170081, 257.999983)" fill="none" stroke-linejoin="miter" d="M 0.500451 0.00000451787 L 57.098426 0.00000451787 " stroke="rgb(0%, 0%, 0%)" stroke-width="1" stroke-opacity="1" stroke-miterlimit="4"/><path stroke-linecap="round" transform="matrix(3.750203, 0, 0, 3.75, 85.170081, 261.749983)" fill="none" stroke-linejoin="miter" d="M 0.500451 0.00000458353 L 57.098426 0.00000458353 " stroke="rgb(0%, 0%, 0%)" stroke-width="1" stroke-opacity="1" stroke-miterlimit="4"/><path stroke-linecap="round" transform="matrix(3.750203, 0, 0, 3.75, 85.170081, 265.499983)" fill="none" stroke-linejoin="miter" d="M 0.500451 0.0000046492 L 57.098426 0.0000046492 " stroke="rgb(0%, 0%, 0%)" stroke-width="1" stroke-opacity="1" stroke-miterlimit="4"/><path stroke-linecap="round" transform="matrix(3.750203, 0, 0, 3.75, 85.170081, 269.249982)" fill="none" stroke-linejoin="miter" d="M 0.500451 0.00000471487 L 57.098426 0.00000471487 " stroke="rgb(0%, 0%, 0%)" stroke-width="1" stroke-opacity="1" stroke-miterlimit="4"/></svg>