<svg xmlns="http://www.w3.org/2000/svg" xmlns:xlink="http://www.w3.org/1999/xlink" width="500" zoomAndPan="magnify" viewBox="0 0 375 374.999991" height="500" preserveAspectRatio="xMidYMid meet" version="1.0"><defs><clipPath id="id1"><path d="M 68.386719 188.25 L 317.386719 188.25 L 317.386719 321 L 68.386719 321 Z M 68.386719 188.25 " clip-rule="nonzero"/></clipPath><clipPath id="id2"><path d="M 66.28125 183 L 315.28125 183 L 315.28125 316 L 66.28125 316 Z M 66.28125 183 " clip-rule="nonzero"/></clipPath><clipPath id="id3"><path d="M 63.136719 176 L 312.136719 176 L 312.136719 309 L 63.136719 309 Z M 63.136719 176 " clip-rule="nonzero"/></clipPath></defs><path fill="rgb(49.409485%, 85.099792%, 34.118652%)" d="M 187.351562 374.699219 C 137.332031 374.699219 90.230469 355.230469 54.886719 319.8125 C 19.46875 284.46875 0 237.371094 0 187.351562 C 0 137.332031 19.46875 90.230469 54.886719 54.886719 C 90.230469 19.46875 137.332031 0 187.351562 0 C 237.371094 0 284.46875 19.46875 319.8125 54.886719 C 355.230469 90.304688 374.699219 137.332031 374.699219 187.351562 C 374.699219 237.371094 355.230469 284.46875 319.8125 319.8125 C 284.46875 355.230469 237.371094 374.699219 187.351562 374.699219 Z M 187.351562 11.230469 C 140.324219 11.230469 96.070312 29.578125 62.824219 62.824219 C 29.578125 96.070312 11.230469 140.324219 11.230469 187.351562 C 11.230469 234.375 29.578125 278.628906 62.824219 311.875 C 96.070312 345.121094 140.324219 363.46875 187.351562 363.46875 C 234.375 363.46875 278.628906 345.121094 311.875 311.875 C 345.121094 278.628906 363.46875 234.375 363.46875 187.351562 C 363.46875 140.324219 345.121094 96.070312 311.875 62.824219 C 278.628906 29.578125 234.375 11.230469 187.351562 11.230469 Z M 187.351562 11.230469 " fill-opacity="1" fill-rule="nonzero"/><g clip-path="url(#id1)"><path fill="rgb(49.409485%, 85.099792%, 34.118652%)" d="M 69.390625 231.570312 C 78.710938 250.523438 88.03125 269.910156 102.085938 285.875 C 116.394531 302.128906 136.257812 314.261719 157.449219 318.800781 C 181.042969 323.851562 205.984375 319.65625 227.996094 310.34375 C 250.058594 301.007812 269.917969 286.457031 285.636719 268.355469 C 301.242188 250.386719 312.652344 228.625 316.269531 204.921875 C 316.820312 201.328125 317.148438 197.710938 317.296875 194.082031 C 317.367188 192.339844 316.78125 190.066406 315.097656 189.203125 C 313.53125 188.394531 312.332031 189.902344 312.269531 191.394531 C 311.773438 203.703125 308.953125 215.40625 304.183594 226.882812 C 299.851562 237.300781 293.824219 247.1875 286.863281 256.125 C 272.761719 274.238281 254.144531 289.332031 233.5625 299.429688 C 212.613281 309.707031 188.796875 315.484375 165.441406 312.710938 C 153.925781 311.34375 143.050781 307.773438 132.8125 302.359375 C 123.820312 297.601562 116.042969 292.03125 108.820312 284.867188 C 105.191406 281.269531 102.769531 278.472656 99.746094 274.554688 C 96.828125 270.765625 94.132812 266.804688 91.601562 262.742188 C 90.265625 260.605469 88.980469 258.4375 87.726562 256.253906 C 88.074219 256.859375 87.707031 256.21875 87.621094 256.066406 C 87.484375 255.824219 87.347656 255.582031 87.210938 255.335938 C 86.878906 254.75 86.550781 254.164062 86.226562 253.574219 C 85.625 252.480469 85.027344 251.382812 84.4375 250.285156 C 81.867188 245.488281 79.414062 240.632812 76.992188 235.761719 C 75.769531 233.304688 74.558594 230.84375 73.347656 228.378906 C 72.753906 227.175781 71.234375 225.417969 69.789062 226.542969 C 68.402344 227.625 68.722656 230.210938 69.390625 231.570312 Z M 69.390625 231.570312 " fill-opacity="1" fill-rule="nonzero"/></g><path fill="rgb(49.409485%, 85.099792%, 34.118652%)" d="M 188.25 367.558594 C 140.378906 367.558594 95.300781 348.925781 61.472656 315.027344 C 27.574219 281.203125 8.941406 236.125 8.941406 188.25 C 8.941406 140.378906 27.574219 95.300781 61.472656 61.472656 C 95.300781 27.574219 140.378906 8.941406 188.25 8.941406 C 236.125 8.941406 281.203125 27.574219 315.027344 61.472656 C 348.925781 95.371094 367.558594 140.378906 367.558594 188.25 C 367.558594 236.125 348.925781 281.203125 315.027344 315.027344 C 281.203125 348.925781 236.125 367.558594 188.25 367.558594 Z M 188.25 19.691406 C 143.246094 19.691406 100.890625 37.25 69.070312 69.070312 C 37.25 100.890625 19.691406 143.246094 19.691406 188.25 C 19.691406 233.257812 37.25 275.613281 69.070312 307.429688 C 100.890625 339.25 143.246094 356.808594 188.25 356.808594 C 233.257812 356.808594 275.613281 339.25 307.429688 307.429688 C 339.25 275.613281 356.808594 233.257812 356.808594 188.25 C 356.808594 143.246094 339.25 100.890625 307.429688 69.070312 C 275.613281 37.25 233.257812 19.691406 188.25 19.691406 Z M 188.25 19.691406 " fill-opacity="1" fill-rule="nonzero"/><g clip-path="url(#id2)"><path fill="rgb(49.409485%, 85.099792%, 34.118652%)" d="M 67.285156 226.058594 C 76.605469 245.011719 85.925781 264.398438 99.980469 280.363281 C 114.289062 296.617188 134.152344 308.75 155.34375 313.289062 C 178.9375 318.339844 203.878906 314.144531 225.890625 304.832031 C 247.953125 295.496094 267.8125 280.945312 283.53125 262.84375 C 299.136719 244.875 310.546875 223.113281 314.164062 199.410156 C 314.714844 195.816406 315.042969 192.199219 315.191406 188.570312 C 315.261719 186.828125 314.671875 184.554688 312.992188 183.691406 C 311.425781 182.882812 310.226562 184.394531 310.164062 185.882812 C 309.667969 198.191406 306.84375 209.894531 302.074219 221.371094 C 297.746094 231.789062 291.71875 241.675781 284.757812 250.613281 C 270.65625 268.726562 252.035156 283.820312 231.457031 293.917969 C 210.507812 304.195312 186.691406 309.972656 163.335938 307.199219 C 151.820312 305.832031 140.945312 302.261719 130.707031 296.847656 C 121.714844 292.089844 113.9375 286.523438 106.714844 279.355469 C 103.085938 275.757812 100.660156 272.964844 97.640625 269.042969 C 94.722656 265.253906 92.027344 261.292969 89.496094 257.234375 C 88.160156 255.09375 86.875 252.929688 85.621094 250.742188 C 85.96875 251.347656 85.601562 250.707031 85.515625 250.554688 C 85.378906 250.3125 85.242188 250.070312 85.105469 249.828125 C 84.773438 249.238281 84.445312 248.652344 84.121094 248.0625 C 83.519531 246.96875 82.921875 245.871094 82.332031 244.773438 C 79.761719 239.976562 77.308594 235.121094 74.886719 230.25 C 73.664062 227.792969 72.453125 225.332031 71.242188 222.867188 C 70.648438 221.664062 69.128906 219.910156 67.683594 221.03125 C 66.296875 222.113281 66.617188 224.703125 67.285156 226.058594 Z M 67.285156 226.058594 " fill-opacity="1" fill-rule="nonzero"/></g><g clip-path="url(#id3)"><path fill="rgb(49.409485%, 85.099792%, 34.118652%)" d="M 64.140625 219.308594 C 73.460938 238.261719 82.78125 257.648438 96.835938 273.613281 C 111.144531 289.867188 131.007812 302 152.199219 306.539062 C 175.792969 311.589844 200.734375 307.394531 222.746094 298.082031 C 244.808594 288.746094 264.667969 274.195312 280.386719 256.09375 C 295.992188 238.125 307.402344 216.363281 311.019531 192.660156 C 311.570312 189.066406 311.898438 185.449219 312.046875 181.820312 C 312.117188 180.078125 311.53125 177.804688 309.847656 176.941406 C 308.28125 176.132812 307.082031 177.644531 307.019531 179.132812 C 306.523438 191.441406 303.703125 203.144531 298.933594 214.621094 C 294.601562 225.039062 288.574219 234.925781 281.613281 243.863281 C 267.511719 261.976562 248.894531 277.070312 228.3125 287.167969 C 207.363281 297.445312 183.546875 303.222656 160.191406 300.449219 C 148.675781 299.082031 137.800781 295.511719 127.5625 290.097656 C 118.570312 285.339844 110.792969 279.773438 103.570312 272.605469 C 99.941406 269.007812 97.519531 266.214844 94.496094 262.292969 C 91.578125 258.503906 88.882812 254.542969 86.351562 250.484375 C 85.015625 248.34375 83.730469 246.179688 82.476562 243.992188 C 82.824219 244.597656 82.457031 243.957031 82.371094 243.804688 C 82.234375 243.5625 82.097656 243.320312 81.960938 243.078125 C 81.628906 242.488281 81.300781 241.902344 80.976562 241.3125 C 80.375 240.21875 79.777344 239.121094 79.1875 238.023438 C 76.617188 233.226562 74.164062 228.371094 71.742188 223.5 C 70.519531 221.042969 69.308594 218.582031 68.097656 216.117188 C 67.503906 214.914062 65.984375 213.160156 64.539062 214.28125 C 63.152344 215.363281 63.472656 217.953125 64.140625 219.308594 Z M 64.140625 219.308594 " fill-opacity="1" fill-rule="nonzero"/></g></svg>