<svg xmlns="http://www.w3.org/2000/svg" xmlns:xlink="http://www.w3.org/1999/xlink" width="500" zoomAndPan="magnify" viewBox="0 0 375 374.999991" height="500" preserveAspectRatio="xMidYMid meet" version="1.0"><defs><clipPath id="id1"><path d="M 64.363281 232.644531 L 318.59375 232.644531 L 318.59375 281.394531 L 64.363281 281.394531 Z M 64.363281 232.644531 " clip-rule="nonzero"/></clipPath><clipPath id="id2"><path d="M 64.363281 238.644531 L 318.59375 238.644531 L 318.59375 287.394531 L 64.363281 287.394531 Z M 64.363281 238.644531 " clip-rule="nonzero"/></clipPath></defs><path fill="rgb(100%, 34.118652%, 34.118652%)" d="M 187.351562 374.699219 C 137.332031 374.699219 90.230469 355.230469 54.886719 319.8125 C 19.46875 284.46875 0 237.371094 0 187.351562 C 0 137.332031 19.46875 90.230469 54.886719 54.886719 C 90.230469 19.46875 137.332031 0 187.351562 0 C 237.371094 0 284.46875 19.46875 319.8125 54.886719 C 355.230469 90.304688 374.699219 137.332031 374.699219 187.351562 C 374.699219 237.371094 355.230469 284.46875 319.8125 319.8125 C 284.46875 355.230469 237.371094 374.699219 187.351562 374.699219 Z M 187.351562 11.230469 C 140.324219 11.230469 96.070312 29.578125 62.824219 62.824219 C 29.578125 96.070312 11.230469 140.324219 11.230469 187.351562 C 11.230469 234.375 29.578125 278.628906 62.824219 311.875 C 96.070312 345.121094 140.324219 363.46875 187.351562 363.46875 C 234.375 363.46875 278.628906 345.121094 311.875 311.875 C 345.121094 278.628906 363.46875 234.375 363.46875 187.351562 C 363.46875 140.324219 345.121094 96.070312 311.875 62.824219 C 278.628906 29.578125 234.375 11.230469 187.351562 11.230469 Z M 187.351562 11.230469 " fill-opacity="1" fill-rule="nonzero"/><path fill="rgb(100%, 34.118652%, 34.118652%)" d="M 188.25 367.558594 C 140.378906 367.558594 95.300781 348.925781 61.472656 315.027344 C 27.574219 281.203125 8.941406 236.125 8.941406 188.25 C 8.941406 140.378906 27.574219 95.300781 61.472656 61.472656 C 95.300781 27.574219 140.378906 8.941406 188.25 8.941406 C 236.125 8.941406 281.203125 27.574219 315.027344 61.472656 C 348.925781 95.371094 367.558594 140.378906 367.558594 188.25 C 367.558594 236.125 348.925781 281.203125 315.027344 315.027344 C 281.203125 348.925781 236.125 367.558594 188.25 367.558594 Z M 188.25 19.691406 C 143.246094 19.691406 100.890625 37.25 69.070312 69.070312 C 37.25 100.890625 19.691406 143.246094 19.691406 188.25 C 19.691406 233.257812 37.25 275.613281 69.070312 307.429688 C 100.890625 339.25 143.246094 356.808594 188.25 356.808594 C 233.257812 356.808594 275.613281 339.25 307.429688 307.429688 C 339.25 275.613281 356.808594 233.257812 356.808594 188.25 C 356.808594 143.246094 339.25 100.890625 307.429688 69.070312 C 275.613281 37.25 233.257812 19.691406 188.25 19.691406 Z M 188.25 19.691406 " fill-opacity="1" fill-rule="nonzero"/><g clip-path="url(#id1)"><path fill="rgb(100%, 34.118652%, 34.118652%)" d="M 318.019531 277.640625 C 296.738281 235.886719 219.976562 232.644531 196.957031 232.644531 C 193.5 232.644531 191.484375 232.722656 191.492188 232.722656 C 191.472656 232.722656 189.457031 232.644531 185.996094 232.644531 C 162.976562 232.644531 86.21875 235.886719 64.941406 277.628906 C 64.839844 277.8125 63.953125 279.492188 64.589844 280.582031 C 65.402344 281.964844 68.085938 281.597656 72.738281 279.433594 C 74.652344 278.550781 76.4375 277.152344 78.699219 275.382812 C 89.335938 267.070312 109.125 251.59375 191.476562 251.59375 C 273.828125 251.59375 293.621094 267.070312 304.253906 275.382812 C 306.519531 277.152344 308.304688 278.550781 310.214844 279.433594 C 313.035156 280.742188 315.160156 281.402344 316.535156 281.402344 C 317.429688 281.402344 318.046875 281.125 318.367188 280.582031 C 319.003906 279.492188 318.117188 277.8125 318.019531 277.640625 " fill-opacity="1" fill-rule="nonzero"/></g><g clip-path="url(#id2)"><path fill="rgb(100%, 34.118652%, 34.118652%)" d="M 318.019531 283.640625 C 296.738281 241.886719 219.976562 238.644531 196.957031 238.644531 C 193.5 238.644531 191.484375 238.722656 191.492188 238.722656 C 191.472656 238.722656 189.457031 238.644531 185.996094 238.644531 C 162.976562 238.644531 86.21875 241.886719 64.941406 283.628906 C 64.839844 283.8125 63.953125 285.492188 64.589844 286.582031 C 65.402344 287.964844 68.085938 287.597656 72.738281 285.433594 C 74.652344 284.550781 76.4375 283.152344 78.699219 281.382812 C 89.335938 273.070312 109.125 257.59375 191.476562 257.59375 C 273.828125 257.59375 293.621094 273.070312 304.253906 281.382812 C 306.519531 283.152344 308.304688 284.550781 310.214844 285.433594 C 313.035156 286.742188 315.160156 287.402344 316.535156 287.402344 C 317.429688 287.402344 318.046875 287.125 318.367188 286.582031 C 319.003906 285.492188 318.117188 283.8125 318.019531 283.640625 " fill-opacity="1" fill-rule="nonzero"/></g></svg>